<svg width="96" height="38" viewBox="0 0 96 38" fill="none" xmlns="http://www.w3.org/2000/svg">
<path d="M47.1571 13.2849C47.1571 13.0265 47.071 12.926 46.827 12.926H45.6356C45.3773 12.926 45.2768 13.0265 45.2768 13.2849V13.8303C45.2768 14.548 44.7744 14.9069 43.8127 14.9069C42.851 14.9069 42.363 14.548 42.363 13.8303V9.20838C42.363 8.49069 42.851 8.13184 43.8127 8.13184C44.7744 8.13184 45.2768 8.49069 45.2768 9.20838V9.55287C45.2768 9.81124 45.3773 9.91172 45.6356 9.91172H46.827C47.071 9.91172 47.1571 9.81124 47.1571 9.55287V8.86389C47.1571 7.65817 46.382 6.52421 43.784 6.52421C41.1859 6.52421 40.4108 7.65817 40.4108 8.86389V14.1748C40.4108 15.3805 41.1859 16.5145 43.784 16.5145C46.382 16.5145 47.1571 15.3805 47.1571 14.1748V13.2849ZM52.0997 12.682H52.1858L53.5925 16.0265C53.693 16.2561 53.7504 16.3997 53.9513 16.3997H55.2145C55.4728 16.3997 55.6451 16.2561 55.5446 16.0265L53.9944 12.4093C55.1427 11.993 55.5733 11.1892 55.5733 10.3423V8.97872C55.5733 7.773 54.6977 6.63904 52.0997 6.63904H49.0854C48.827 6.63904 48.7409 6.75387 48.7409 7.01224V16.0265C48.7409 16.2848 48.827 16.3997 49.0854 16.3997H50.3342C50.5925 16.3997 50.6787 16.2848 50.6787 16.0265V12.682H52.0997ZM52.0997 8.24667C53.0614 8.24667 53.6499 8.60552 53.6499 9.32321V9.99784C53.6499 10.7155 53.0614 11.0744 52.0997 11.0744H50.6787V8.24667H52.0997ZM59.2854 7.01224C59.2854 6.75387 59.1992 6.63904 58.9409 6.63904H57.6921C57.4337 6.63904 57.3476 6.75387 57.3476 7.01224V16.0265C57.3476 16.2848 57.4337 16.3997 57.6921 16.3997H58.9409C59.1992 16.3997 59.2854 16.2848 59.2854 16.0265V7.01224ZM65.8654 9.4524C65.8654 9.69641 65.9515 9.81124 66.1955 9.81124H67.4012C67.6596 9.81124 67.7601 9.69641 67.7601 9.4524V8.86389C67.7601 7.65817 66.9563 6.52421 64.4443 6.52421C61.9324 6.52421 61.186 7.65817 61.186 8.86389V9.71077C61.186 10.572 61.8032 11.304 62.4922 11.5624L64.7171 12.3949C65.363 12.639 65.9371 12.8686 65.9371 13.4571V13.9164C65.9371 14.6198 65.3773 14.9499 64.4156 14.9499C63.4396 14.9499 62.8941 14.6198 62.8941 13.9164V13.2705C62.8941 13.0122 62.808 12.8973 62.5496 12.8973H61.3439C61.0999 12.8973 60.9994 13.0122 60.9994 13.2705V14.1748C60.9994 15.3805 61.875 16.5145 64.43 16.5145C66.9993 16.5145 67.8462 15.3805 67.8462 14.1748V13.0696C67.8462 12.0074 67.1285 11.3471 66.1524 11.0026L63.6549 10.1127C63.4252 10.0266 63.0664 9.83995 63.0664 9.33757V9.12226C63.0664 8.41892 63.54 8.08878 64.473 8.08878C65.3917 8.08878 65.8654 8.41892 65.8654 9.12226V9.4524ZM71.4385 7.01224C71.4385 6.75387 71.3523 6.63904 71.094 6.63904H69.8452C69.5868 6.63904 69.5007 6.75387 69.5007 7.01224V16.0265C69.5007 16.2848 69.5868 16.3997 69.8452 16.3997H71.094C71.3523 16.3997 71.4385 16.2848 71.4385 16.0265V7.01224ZM78.0185 9.4524C78.0185 9.69641 78.1046 9.81124 78.3486 9.81124H79.5543C79.8127 9.81124 79.9132 9.69641 79.9132 9.4524V8.86389C79.9132 7.65817 79.1094 6.52421 76.5974 6.52421C74.0855 6.52421 73.3391 7.65817 73.3391 8.86389V9.71077C73.3391 10.572 73.9563 11.304 74.6453 11.5624L76.8702 12.3949C77.5161 12.639 78.0902 12.8686 78.0902 13.4571V13.9164C78.0902 14.6198 77.5304 14.9499 76.5687 14.9499C75.5927 14.9499 75.0472 14.6198 75.0472 13.9164V13.2705C75.0472 13.0122 74.9611 12.8973 74.7027 12.8973H73.497C73.253 12.8973 73.1525 13.0122 73.1525 13.2705V14.1748C73.1525 15.3805 74.0281 16.5145 76.5831 16.5145C79.1524 16.5145 79.9993 15.3805 79.9993 14.1748V13.0696C79.9993 12.0074 79.2816 11.3471 78.3056 11.0026L75.808 10.1127C75.5783 10.0266 75.2195 9.83995 75.2195 9.33757V9.12226C75.2195 8.41892 75.6932 8.08878 76.6262 8.08878C77.5448 8.08878 78.0185 8.41892 78.0185 9.12226V9.4524Z" fill="#252129"/>
<path d="M40.0807 21.8392C39.8223 21.8392 39.7219 21.9254 39.7219 22.1837V23.088C39.7219 23.3464 39.8223 23.4469 40.0807 23.4469H42.1189V31.2267C42.1189 31.485 42.2194 31.5999 42.4778 31.5999H43.7266C43.9849 31.5999 44.0711 31.485 44.0711 31.2267V23.4469H46.1093C46.3533 23.4469 46.4682 23.3464 46.4682 23.088V22.1837C46.4682 21.9254 46.3533 21.8392 46.1093 21.8392H40.0807ZM51.0063 27.8822H51.0925L52.4991 31.2267C52.5996 31.4563 52.657 31.5999 52.858 31.5999H54.1211C54.3795 31.5999 54.5517 31.4563 54.4513 31.2267L52.901 27.6095C54.0494 27.1932 54.48 26.3894 54.48 25.5425V24.1789C54.48 22.9732 53.6044 21.8392 51.0063 21.8392H47.992C47.7337 21.8392 47.6475 21.9541 47.6475 22.2124V31.2267C47.6475 31.485 47.7337 31.5999 47.992 31.5999H49.2408C49.4992 31.5999 49.5853 31.485 49.5853 31.2267V27.8822H51.0063ZM51.0063 23.4469C51.968 23.4469 52.5566 23.8057 52.5566 24.5234V25.198C52.5566 25.9157 51.968 26.2746 51.0063 26.2746H49.5853V23.4469H51.0063ZM58.5939 21.8392C58.3355 21.8392 58.2207 21.9541 58.1489 22.1981L55.4648 31.241C55.393 31.4707 55.4791 31.5999 55.7375 31.5999H56.9002C57.1585 31.5999 57.259 31.4707 57.3308 31.241L57.8332 29.4898H60.503L61.0054 31.241C61.0771 31.4707 61.1776 31.5999 61.4216 31.5999H62.7135C62.9575 31.5999 63.0436 31.4707 62.9718 31.241L60.302 22.1981C60.2303 21.9541 60.1011 21.8392 59.8427 21.8392H58.5939ZM60.0724 27.954H58.2494L58.7375 26.3463C58.9097 25.7435 59.1537 23.9349 59.1824 23.7483C59.1968 23.9349 59.4121 25.7722 59.5987 26.3607L60.0724 27.954ZM70.6363 28.4851C70.6363 28.2267 70.5502 28.1262 70.3062 28.1262H69.1148C68.8565 28.1262 68.756 28.2267 68.756 28.4851V29.0305C68.756 29.7482 68.2536 30.1071 67.2919 30.1071C66.3302 30.1071 65.8422 29.7482 65.8422 29.0305V24.4086C65.8422 23.6909 66.3302 23.332 67.2919 23.332C68.2536 23.332 68.756 23.6909 68.756 24.4086V24.7531C68.756 25.0114 68.8565 25.1119 69.1148 25.1119H70.3062C70.5502 25.1119 70.6363 25.0114 70.6363 24.7531V24.0641C70.6363 22.8584 69.8612 21.7244 67.2632 21.7244C64.6651 21.7244 63.89 22.8584 63.89 24.0641V29.375C63.89 30.5807 64.6651 31.7147 67.2632 31.7147C69.8612 31.7147 70.6363 30.5807 70.6363 29.375V28.4851ZM76.0239 26.6334L79.0238 22.1981C79.153 22.0115 79.1099 21.8392 78.8516 21.8392H77.5167C77.2583 21.8392 77.0717 21.9971 76.9425 22.1981L74.3875 26.0593H74.1579V22.1981C74.1579 21.9541 74.0717 21.8392 73.8134 21.8392H72.5646C72.3062 21.8392 72.2201 21.9541 72.2201 22.1981V31.241C72.2201 31.485 72.3062 31.5999 72.5646 31.5999H73.8134C74.0717 31.5999 74.1579 31.485 74.1579 31.241V27.4803H74.4019L77.1004 31.241C77.2296 31.4133 77.3731 31.5999 77.6171 31.5999H79.2104C79.4688 31.5999 79.5262 31.4133 79.397 31.241L76.0239 26.6334ZM85.9996 31.5999C86.2579 31.5999 86.3584 31.4994 86.3584 31.241V30.3367C86.3584 30.0783 86.2579 29.9922 85.9996 29.9922H82.5403V27.3224H85.612C85.8704 27.3224 85.9852 27.2219 85.9852 26.9779V26.1167C85.9852 25.8583 85.8704 25.7722 85.612 25.7722H82.5403V23.4469H85.856C86.1 23.4469 86.2149 23.3464 86.2149 23.088V22.1837C86.2149 21.9254 86.1 21.8392 85.856 21.8392H80.947C80.6886 21.8392 80.6025 21.9541 80.6025 22.2124V31.2267C80.6025 31.485 80.6886 31.5999 80.947 31.5999H85.9996ZM91.3064 27.8822H91.3926L92.7992 31.2267C92.8997 31.4563 92.9571 31.5999 93.1581 31.5999H94.4212C94.6796 31.5999 94.8518 31.4563 94.7514 31.2267L93.2011 27.6095C94.3495 27.1932 94.7801 26.3894 94.7801 25.5425V24.1789C94.7801 22.9732 93.9045 21.8392 91.3064 21.8392H88.2921C88.0338 21.8392 87.9476 21.9541 87.9476 22.2124V31.2267C87.9476 31.485 88.0338 31.5999 88.2921 31.5999H89.5409C89.7993 31.5999 89.8854 31.485 89.8854 31.2267V27.8822H91.3064ZM91.3064 23.4469C92.2681 23.4469 92.8567 23.8057 92.8567 24.5234V25.198C92.8567 25.9157 92.2681 26.2746 91.3064 26.2746H89.8854V23.4469H91.3064Z" fill="#252129"/>
<path fill-rule="evenodd" clip-rule="evenodd" d="M32.9944 13.679C32.8267 13.6324 32.7829 13.4627 32.5216 13.5114C32.1986 13.9776 31.0481 13.7798 30.6417 14.0516C30.6062 14.0511 30.5695 14.0516 30.5332 14.052C30.4105 14.0537 30.2882 14.0553 30.2052 14.018C30.0382 14.1322 29.9043 14.2796 29.5654 14.2196C29.3634 14.099 29.2662 13.8684 29.0626 13.7479C29.1197 13.6824 29.2136 13.6521 29.2633 13.5786C29.2574 13.359 29.0075 13.3846 29.0626 13.1057C28.6849 12.9638 28.5105 12.6185 28.2438 12.3665C27.1676 14.0335 25.5438 15.3238 23.6004 15.9521L23.7953 14.4733C25.2384 13.8621 26.4394 12.8075 27.2431 11.4921C27.2297 11.3858 27.251 11.272 27.2147 11.1443C27.1651 10.97 27.0194 10.6773 26.9126 10.5361C26.7891 10.3753 26.5854 10.3014 26.4527 10.1602C25.9294 11.2968 25.0819 12.2603 24.0035 12.8966L24.2435 11.0679C25.023 10.3127 25.5405 9.29754 25.6778 8.17991L25.6348 8.16815C25.5613 8.06273 25.4954 7.94765 25.4675 7.79603C25.4382 7.66582 25.6139 7.74143 25.5676 7.59316C25.0844 7.09966 24.8419 6.36423 24.5602 5.66618C24.6658 5.75313 24.7067 5.74934 24.829 5.76783C24.9475 5.60906 25.0017 5.3852 25.0556 5.16008C24.6241 4.42255 24.0106 3.81187 23.2762 3.39396C22.8793 3.40488 22.5563 3.48216 22.3093 3.7056C21.6954 3.60354 21.1204 3.30996 20.4602 3.36582C20.2882 3.11214 19.8672 3.10752 19.5208 3.02898L19.5079 2.98866C17.4042 3.64386 15.9558 5.70524 16.1511 8.00435C16.2783 9.51006 17.085 10.7957 18.2393 11.5853L18.7855 13.3455C16.6502 12.5379 15.0506 10.5508 14.8436 8.11817C14.6972 6.38817 15.2835 4.76528 16.338 3.55146C16.1456 3.50064 15.9699 3.43134 15.8585 3.29946C15.8385 3.2184 15.8105 3.14364 15.8247 3.02898C15.6837 2.86812 15.4884 2.80344 15.276 2.76605C14.0412 4.22935 13.3614 6.16767 13.537 8.22905C13.8179 11.5332 16.207 14.1524 19.255 14.8639L19.6969 16.2881C15.7592 15.7282 12.5827 12.4984 12.2292 8.34161C12.0439 6.15885 12.6745 4.09831 13.8571 2.45273C13.6743 2.33555 13.5087 2.20619 13.3397 2.14991C13.4732 1.96889 13.6572 1.83869 13.8421 1.71016C13.8855 1.30486 13.797 1.03396 13.6401 0.830255C13.9076 0.602612 13.9552 0.0456868 13.4732 0.289709C13.426 0.117088 13.2253 -0.0572142 13.035 0.0179666C12.9065 0.0708871 12.7525 0.0876873 12.667 0.119188C12.5969 0.146908 12.5434 0.242669 12.4662 0.255689C12.0852 0.31491 11.7935 0.159508 11.4906 0.153628C11.2698 0.35985 10.9727 0.32751 10.6393 0.295589C10.3893 0.271229 10.1185 0.247289 9.84387 0.32331C9.47205 0.637053 8.60948 0.454351 8.36577 0.897456C8.27271 0.877295 8.2268 0.904596 8.1809 0.931896C8.135 0.958776 8.08868 0.985656 7.99562 0.966756C7.87919 1.1629 7.69975 1.29898 7.42474 1.33636C7.22902 1.20112 7.00785 1.22044 6.7946 1.23976C6.59638 1.2574 6.40526 1.27546 6.24835 1.16878C6.1169 1.07806 6.16447 0.949116 6.04762 0.897456C5.53392 0.666873 5.41832 1.39264 5.27519 1.81012C4.82366 2.24777 4.06207 2.37125 3.96484 3.1638C3.82546 3.23688 3.79959 3.42504 3.69568 3.53424C3.87429 4.37005 3.62933 4.53973 3.19157 4.92362C2.86857 5.2046 2.71709 5.41082 2.25054 5.3957C2.07694 5.82999 1.89333 6.09795 1.51191 6.27519C1.49438 6.41547 1.46266 6.54063 1.44388 6.68007C1.32662 6.79558 1.17681 6.88336 1.20936 7.15426C0.899298 7.28236 0.876346 7.64566 0.739469 7.96487C0.59216 8.30759 0.272919 8.59865 0.335933 9.11526C0.456952 9.26436 0.579223 9.4122 0.673117 9.5886C0.469054 9.81415 0.642654 10.0401 0.673117 10.2636C0.709423 10.555 0.575885 10.7818 0.570877 11.0763C0.539579 11.1682 0.455283 11.2086 0.438173 11.3127C0.42941 11.8138 0.016275 11.9045 0 12.3968C0.162333 12.4808 0.323831 12.566 0.403954 12.734C0.182781 12.9516 0.480739 13.2632 0.438173 13.6135C0.99361 14.0553 1.48812 14.5606 1.98346 15.0655C1.98764 15.7673 2.54933 15.8891 2.99043 16.1835C3.05135 16.2213 3.09809 16.3435 3.15735 16.3851C3.25208 16.4481 3.36475 16.4343 3.42818 16.4872C3.59344 16.6287 3.69609 16.9042 3.86385 16.9933C3.89098 17.0084 3.92937 17.008 3.97277 17.0071C4.02159 17.0063 4.07751 17.0055 4.13218 17.0269C4.23192 17.0659 4.29744 17.1793 4.40009 17.2306C4.54824 17.3041 4.76774 17.3767 4.90545 17.4003C5.2827 17.4603 5.48092 17.1596 5.77888 17.0958C6.00548 17.0458 6.30385 17.0004 6.51751 16.9933C6.70447 16.9891 6.88099 17.0437 7.05626 17.0979C7.25656 17.16 7.45395 17.2226 7.66135 17.197C8.11914 17.1378 8.35742 16.8832 8.73509 16.7232C9.28843 16.6107 10.0392 16.3251 10.6509 16.5884C10.8099 17.0315 10.9648 17.4633 11.4246 17.4675C11.5674 17.4675 11.6842 17.3469 11.8265 17.331C11.8949 17.3238 11.9771 17.3398 12.0644 17.3557C12.2092 17.3814 12.3682 17.4078 12.4984 17.331C12.7917 17.6061 13.0413 17.7808 13.0012 18.1764C12.9875 18.3218 12.8431 18.4662 12.8343 18.6506C12.8314 18.7157 12.8777 18.8237 12.8677 18.8879C12.823 19.1807 12.5885 19.4352 12.566 19.6641C12.5468 19.8585 12.6227 20.1173 12.667 20.2412C12.803 20.6175 13.0838 20.7473 13.3718 21.0182C13.807 21.4243 14.1075 21.82 14.178 22.5403C14.7719 22.8448 14.3929 24.1271 14.8524 24.5685C14.8349 24.9377 14.6462 25.1288 14.5473 25.4131C14.4401 25.3854 14.4439 25.4681 14.3808 25.4811C14.3737 25.6328 14.2936 25.7109 14.2131 25.7861C14.0491 26.5387 13.744 27.1901 13.8421 28.0528C13.9005 28.5627 14.1885 28.7211 14.4138 29.0999C14.6375 29.4787 14.6634 29.9471 14.9509 30.1159C15.1654 30.4196 15.0957 30.7619 15.152 31.2302C15.2334 31.8925 15.4942 32.5519 15.5226 33.2592C16.3626 33.7229 16.5813 34.8082 16.9999 35.6931C16.5972 36.0065 17.0979 36.5508 17.1363 36.9447C17.2878 36.8633 17.3967 36.9506 17.5415 37.0376C17.6717 37.1157 17.8307 37.1934 18.0753 37.1497C18.3411 36.9431 18.8732 37.0044 19.1173 36.7742C19.3698 36.8607 19.4716 36.8154 19.6886 36.7431C19.8697 36.799 20.1238 36.7772 20.2595 36.8771C20.3901 36.8154 20.534 36.6705 20.7306 36.7742C20.8099 36.5882 21.1137 36.6218 21.3336 36.5726C21.7401 36.3391 21.9996 35.9573 22.4098 35.728C22.5112 35.3685 22.7967 35.1958 23.0149 34.9506C23.1205 34.4907 23.4402 34.2529 23.6188 33.8674C24.1525 33.6481 24.1383 32.8804 24.2251 32.2109C24.2293 32.171 24.1913 32.1739 24.1534 32.1764C24.107 32.1798 24.0603 32.1832 24.0903 32.1088C24.5448 31.777 25.634 31.7619 25.3669 30.9257C25.4449 30.7341 25.4428 30.4628 25.5017 30.249C25.2826 30.0067 25.2905 29.538 25.1324 29.2343C25.2943 28.9361 25.4925 28.6761 25.8368 28.5589C26.0792 28.1318 26.5337 27.7567 27.0791 27.7479C27.4192 27.3951 27.9216 27.0507 27.9542 26.3947C27.9726 26.0003 27.7581 25.3984 27.8194 24.9734C27.8465 24.776 28.0084 24.6277 27.988 24.466C27.9605 24.2749 27.6955 24.1363 27.5845 23.9599C27.3374 23.5684 27.4163 23.0976 27.3157 22.6075C27.3871 22.6352 27.4296 22.6948 27.5507 22.6747C27.5744 22.3903 27.5148 22.1929 27.2815 22.1669C27.173 22.2051 27.2573 22.4361 27.1813 22.5058C26.8938 21.6919 27.7151 21.5146 27.7514 20.7473C27.9292 20.7393 28.0439 20.5419 28.1553 20.3756C28.4424 20.2475 28.5472 19.9358 28.793 19.7661C28.8047 19.6876 28.8347 19.6259 28.861 19.5645C29.2408 19.2575 29.6151 18.948 29.9368 18.5834C29.9623 18.57 29.9856 18.5851 30.0061 18.6002C30.0349 18.6216 30.057 18.6435 30.0695 18.5834C29.9539 18.5242 30.1547 18.5145 30.1375 18.4473C30.6684 18.2281 30.9279 17.7346 31.3811 17.4339C31.4483 17.1638 31.5706 16.9496 31.7834 16.8249C32.0338 15.9718 32.7027 15.5422 32.825 14.5585C32.8505 14.4733 32.9919 14.5031 32.9944 14.3905C32.9331 14.2179 32.9464 13.8542 32.9944 13.679ZM21.9187 19.3096L19.1156 10.2598C18.3428 9.72931 17.8061 8.86914 17.7197 7.86071C17.5687 6.08073 18.884 4.51117 20.6509 4.35913C22.4186 4.20835 23.9793 5.5301 24.1296 7.3105C24.2164 8.31767 23.8283 9.2568 23.1581 9.91243L21.9187 19.3096Z" fill="#252129"/>
<path fill-rule="evenodd" clip-rule="evenodd" d="M19.7324 7.68846C19.7884 8.34871 20.3693 8.83927 21.0269 8.78383C21.6838 8.72839 22.172 8.14332 22.1161 7.48392C22.0602 6.82157 21.4797 6.32849 20.8229 6.38561C20.1652 6.44315 19.6769 7.02611 19.7324 7.68846Z" fill="#252129"/>
</svg>
